<mxfile host="app.diagrams.net" modified="2021-04-17T03:16:18.115Z" agent="5.0 (Windows NT 10.0; Win64; x64) AppleWebKit/537.36 (KHTML, like Gecko) Chrome/90.0.4430.72 Safari/537.36" etag="NvhJYHstAGhDQwFzyJvJ" version="14.6.1" type="github">
  <diagram id="vmVum9pXksW3zd4Mj00F" name="Page-1">
    <mxGraphModel dx="1038" dy="548" grid="1" gridSize="10" guides="1" tooltips="1" connect="1" arrows="1" fold="1" page="1" pageScale="1" pageWidth="827" pageHeight="1169" math="0" shadow="0">
      <root>
        <mxCell id="0" />
        <mxCell id="1" parent="0" />
        <mxCell id="ZV-1-TacNn8IX8gU4SjX-42" value="我的界面" style="shape=umlLifeline;perimeter=lifelinePerimeter;container=1;collapsible=0;recursiveResize=0;rounded=0;shadow=0;strokeWidth=1;" parent="1" vertex="1">
          <mxGeometry x="190" y="80" width="100" height="430" as="geometry" />
        </mxCell>
        <mxCell id="ZV-1-TacNn8IX8gU4SjX-43" value="" style="points=[];perimeter=orthogonalPerimeter;rounded=0;shadow=0;strokeWidth=1;" parent="ZV-1-TacNn8IX8gU4SjX-42" vertex="1">
          <mxGeometry x="45" y="90" width="10" height="60" as="geometry" />
        </mxCell>
        <mxCell id="kDBZC2RVZyhaXaxTecxW-1" value="" style="endArrow=classic;html=1;entryX=0.94;entryY=0.457;entryDx=0;entryDy=0;entryPerimeter=0;exitX=1.26;exitY=0.083;exitDx=0;exitDy=0;exitPerimeter=0;" edge="1" parent="ZV-1-TacNn8IX8gU4SjX-42" source="ZV-1-TacNn8IX8gU4SjX-43" target="ZV-1-TacNn8IX8gU4SjX-43">
          <mxGeometry width="50" height="50" relative="1" as="geometry">
            <mxPoint x="60" y="70" as="sourcePoint" />
            <mxPoint x="60" y="110" as="targetPoint" />
            <Array as="points">
              <mxPoint x="80" y="95" />
              <mxPoint x="80" y="117" />
            </Array>
          </mxGeometry>
        </mxCell>
        <mxCell id="ZV-1-TacNn8IX8gU4SjX-45" value="服务器" style="shape=umlLifeline;perimeter=lifelinePerimeter;container=1;collapsible=0;recursiveResize=0;rounded=0;shadow=0;strokeWidth=1;" parent="1" vertex="1">
          <mxGeometry x="680" y="80" width="100" height="430" as="geometry" />
        </mxCell>
        <mxCell id="ZV-1-TacNn8IX8gU4SjX-46" value="" style="points=[];perimeter=orthogonalPerimeter;rounded=0;shadow=0;strokeWidth=1;" parent="ZV-1-TacNn8IX8gU4SjX-45" vertex="1">
          <mxGeometry x="45" y="230" width="10" height="140" as="geometry" />
        </mxCell>
        <mxCell id="ZV-1-TacNn8IX8gU4SjX-93" value="" style="html=1;points=[];perimeter=orthogonalPerimeter;" parent="ZV-1-TacNn8IX8gU4SjX-45" vertex="1">
          <mxGeometry x="45" y="130" width="10" height="50" as="geometry" />
        </mxCell>
        <mxCell id="ZV-1-TacNn8IX8gU4SjX-47" value="普通用户和医生" style="shape=umlActor;verticalLabelPosition=bottom;verticalAlign=top;html=1;outlineConnect=0;fontStyle=0;fontFamily=Helvetica;" parent="1" vertex="1">
          <mxGeometry x="40" y="70" width="30" height="60" as="geometry" />
        </mxCell>
        <mxCell id="ZV-1-TacNn8IX8gU4SjX-48" value="" style="endArrow=none;dashed=1;html=1;fontFamily=Helvetica;" parent="1" target="ZV-1-TacNn8IX8gU4SjX-47" edge="1">
          <mxGeometry width="50" height="50" relative="1" as="geometry">
            <mxPoint x="55" y="510" as="sourcePoint" />
            <mxPoint x="54.5" y="160" as="targetPoint" />
          </mxGeometry>
        </mxCell>
        <mxCell id="ZV-1-TacNn8IX8gU4SjX-49" value="" style="html=1;points=[];perimeter=orthogonalPerimeter;fontFamily=Helvetica;" parent="1" vertex="1">
          <mxGeometry x="50" y="170" width="10" height="310" as="geometry" />
        </mxCell>
        <mxCell id="ZV-1-TacNn8IX8gU4SjX-50" value="点击用户头像" style="verticalAlign=bottom;endArrow=block;shadow=0;strokeWidth=1;entryX=-0.34;entryY=0.012;entryDx=0;entryDy=0;entryPerimeter=0;" parent="1" target="ZV-1-TacNn8IX8gU4SjX-43" edge="1">
          <mxGeometry relative="1" as="geometry">
            <mxPoint x="61" y="171" as="sourcePoint" />
            <mxPoint x="230" y="170" as="targetPoint" />
            <Array as="points" />
          </mxGeometry>
        </mxCell>
        <mxCell id="ZV-1-TacNn8IX8gU4SjX-51" value="显示个人信息界面" style="html=1;verticalAlign=bottom;endArrow=open;dashed=1;endSize=8;fontFamily=Helvetica;" parent="1" target="ZV-1-TacNn8IX8gU4SjX-49" edge="1">
          <mxGeometry x="-0.4762" relative="1" as="geometry">
            <mxPoint x="408" y="270" as="sourcePoint" />
            <mxPoint x="72" y="270" as="targetPoint" />
            <Array as="points">
              <mxPoint x="222" y="270" />
            </Array>
            <mxPoint as="offset" />
          </mxGeometry>
        </mxCell>
        <mxCell id="ZV-1-TacNn8IX8gU4SjX-52" value="个人信息界面" style="shape=umlLifeline;perimeter=lifelinePerimeter;container=1;collapsible=0;recursiveResize=0;rounded=0;shadow=0;strokeWidth=1;" parent="1" vertex="1">
          <mxGeometry x="364" y="80" width="100" height="430" as="geometry" />
        </mxCell>
        <mxCell id="ZV-1-TacNn8IX8gU4SjX-53" value="" style="points=[];perimeter=orthogonalPerimeter;rounded=0;shadow=0;strokeWidth=1;" parent="ZV-1-TacNn8IX8gU4SjX-52" vertex="1">
          <mxGeometry x="45" y="130" width="10" height="270" as="geometry" />
        </mxCell>
        <mxCell id="ZV-1-TacNn8IX8gU4SjX-54" value="已登录，创建个人信息界面" style="verticalAlign=bottom;endArrow=block;shadow=0;strokeWidth=1;entryX=-0.22;entryY=-0.001;entryDx=0;entryDy=0;entryPerimeter=0;" parent="1" target="ZV-1-TacNn8IX8gU4SjX-53" edge="1">
          <mxGeometry relative="1" as="geometry">
            <mxPoint x="250" y="210" as="sourcePoint" />
            <mxPoint x="400.7999999999999" y="200.33999999999997" as="targetPoint" />
            <Array as="points" />
          </mxGeometry>
        </mxCell>
        <mxCell id="ZV-1-TacNn8IX8gU4SjX-55" value="系统相册" style="shape=umlLifeline;perimeter=lifelinePerimeter;container=1;collapsible=0;recursiveResize=0;rounded=0;shadow=0;strokeWidth=1;" parent="1" vertex="1">
          <mxGeometry x="540" y="80" width="100" height="430" as="geometry" />
        </mxCell>
        <mxCell id="ZV-1-TacNn8IX8gU4SjX-56" value="" style="points=[];perimeter=orthogonalPerimeter;rounded=0;shadow=0;strokeWidth=1;" parent="ZV-1-TacNn8IX8gU4SjX-55" vertex="1">
          <mxGeometry x="45" y="260" width="10" height="40" as="geometry" />
        </mxCell>
        <mxCell id="ZV-1-TacNn8IX8gU4SjX-61" value="" style="endArrow=classic;html=1;entryX=0.14;entryY=0.055;entryDx=0;entryDy=0;entryPerimeter=0;" parent="1" target="ZV-1-TacNn8IX8gU4SjX-56" edge="1">
          <mxGeometry width="50" height="50" relative="1" as="geometry">
            <mxPoint x="424" y="342" as="sourcePoint" />
            <mxPoint x="570" y="341" as="targetPoint" />
          </mxGeometry>
        </mxCell>
        <mxCell id="ZV-1-TacNn8IX8gU4SjX-62" value="调用系统相册" style="edgeLabel;html=1;align=center;verticalAlign=middle;resizable=0;points=[];" parent="ZV-1-TacNn8IX8gU4SjX-61" vertex="1" connectable="0">
          <mxGeometry x="0.1142" y="4" relative="1" as="geometry">
            <mxPoint x="-7" y="-11" as="offset" />
          </mxGeometry>
        </mxCell>
        <mxCell id="ZV-1-TacNn8IX8gU4SjX-63" value="返回图片，显示" style="html=1;verticalAlign=bottom;endArrow=open;dashed=1;endSize=8;fontFamily=Helvetica;" parent="1" edge="1">
          <mxGeometry relative="1" as="geometry">
            <mxPoint x="579.5" y="380" as="sourcePoint" />
            <mxPoint x="420" y="380" as="targetPoint" />
          </mxGeometry>
        </mxCell>
        <mxCell id="ZV-1-TacNn8IX8gU4SjX-64" value="" style="endArrow=classic;html=1;exitX=0.96;exitY=0.502;exitDx=0;exitDy=0;exitPerimeter=0;" parent="1" edge="1">
          <mxGeometry width="50" height="50" relative="1" as="geometry">
            <mxPoint x="60" y="460.46000000000004" as="sourcePoint" />
            <mxPoint x="410.4000000000001" y="460" as="targetPoint" />
          </mxGeometry>
        </mxCell>
        <mxCell id="ZV-1-TacNn8IX8gU4SjX-65" value="点击退出" style="edgeLabel;html=1;align=center;verticalAlign=middle;resizable=0;points=[];" parent="ZV-1-TacNn8IX8gU4SjX-64" vertex="1" connectable="0">
          <mxGeometry x="0.1142" y="4" relative="1" as="geometry">
            <mxPoint x="35" y="-6" as="offset" />
          </mxGeometry>
        </mxCell>
        <mxCell id="ZV-1-TacNn8IX8gU4SjX-84" value="" style="endArrow=classic;html=1;" parent="1" edge="1">
          <mxGeometry width="50" height="50" relative="1" as="geometry">
            <mxPoint x="60" y="300" as="sourcePoint" />
            <mxPoint x="410" y="300" as="targetPoint" />
          </mxGeometry>
        </mxCell>
        <mxCell id="ZV-1-TacNn8IX8gU4SjX-85" value="修改头像以外个人信息" style="edgeLabel;html=1;align=center;verticalAlign=middle;resizable=0;points=[];" parent="ZV-1-TacNn8IX8gU4SjX-84" vertex="1" connectable="0">
          <mxGeometry x="0.1142" y="4" relative="1" as="geometry">
            <mxPoint x="55" y="-6" as="offset" />
          </mxGeometry>
        </mxCell>
        <mxCell id="ZV-1-TacNn8IX8gU4SjX-86" value="" style="endArrow=classic;html=1;entryX=0.02;entryY=0.013;entryDx=0;entryDy=0;entryPerimeter=0;" parent="1" target="ZV-1-TacNn8IX8gU4SjX-46" edge="1">
          <mxGeometry width="50" height="50" relative="1" as="geometry">
            <mxPoint x="420" y="310" as="sourcePoint" />
            <mxPoint x="725" y="308" as="targetPoint" />
          </mxGeometry>
        </mxCell>
        <mxCell id="ZV-1-TacNn8IX8gU4SjX-87" value="将信息传输至服务器" style="edgeLabel;html=1;align=center;verticalAlign=middle;resizable=0;points=[];" parent="ZV-1-TacNn8IX8gU4SjX-86" vertex="1" connectable="0">
          <mxGeometry x="0.1142" y="4" relative="1" as="geometry">
            <mxPoint x="55" y="-6" as="offset" />
          </mxGeometry>
        </mxCell>
        <mxCell id="ZV-1-TacNn8IX8gU4SjX-88" value="" style="endArrow=classic;html=1;entryX=-0.06;entryY=0.716;entryDx=0;entryDy=0;entryPerimeter=0;" parent="1" target="ZV-1-TacNn8IX8gU4SjX-46" edge="1">
          <mxGeometry width="50" height="50" relative="1" as="geometry">
            <mxPoint x="420" y="410" as="sourcePoint" />
            <mxPoint x="720" y="410" as="targetPoint" />
          </mxGeometry>
        </mxCell>
        <mxCell id="ZV-1-TacNn8IX8gU4SjX-89" value="将头像传输至服务器" style="edgeLabel;html=1;align=center;verticalAlign=middle;resizable=0;points=[];" parent="ZV-1-TacNn8IX8gU4SjX-88" vertex="1" connectable="0">
          <mxGeometry x="0.1142" y="4" relative="1" as="geometry">
            <mxPoint x="55" y="-6" as="offset" />
          </mxGeometry>
        </mxCell>
        <mxCell id="ZV-1-TacNn8IX8gU4SjX-90" value="返回我的界面" style="html=1;verticalAlign=bottom;endArrow=open;dashed=1;endSize=8;fontFamily=Helvetica;" parent="1" edge="1">
          <mxGeometry x="-0.3218" relative="1" as="geometry">
            <mxPoint x="408" y="480" as="sourcePoint" />
            <mxPoint x="60" y="480" as="targetPoint" />
            <Array as="points">
              <mxPoint x="222" y="480" />
            </Array>
            <mxPoint as="offset" />
          </mxGeometry>
        </mxCell>
        <mxCell id="ZV-1-TacNn8IX8gU4SjX-94" value="读取个人信息" style="html=1;verticalAlign=bottom;endArrow=block;exitX=1.22;exitY=0.039;exitDx=0;exitDy=0;exitPerimeter=0;" parent="1" source="ZV-1-TacNn8IX8gU4SjX-53" target="ZV-1-TacNn8IX8gU4SjX-93" edge="1">
          <mxGeometry x="0.3746" relative="1" as="geometry">
            <mxPoint x="655" y="200" as="sourcePoint" />
            <mxPoint as="offset" />
          </mxGeometry>
        </mxCell>
        <mxCell id="ZV-1-TacNn8IX8gU4SjX-95" value="返回个人信息" style="html=1;verticalAlign=bottom;endArrow=open;dashed=1;endSize=8;exitX=0;exitY=0.95;" parent="1" source="ZV-1-TacNn8IX8gU4SjX-93" edge="1">
          <mxGeometry x="-0.4426" relative="1" as="geometry">
            <mxPoint x="420" y="258" as="targetPoint" />
            <mxPoint as="offset" />
          </mxGeometry>
        </mxCell>
        <mxCell id="ZV-1-TacNn8IX8gU4SjX-97" value="返回最新数据" style="html=1;verticalAlign=bottom;endArrow=open;dashed=1;endSize=8;" parent="1" source="ZV-1-TacNn8IX8gU4SjX-45" edge="1">
          <mxGeometry x="-0.4216" relative="1" as="geometry">
            <mxPoint x="500" y="450" as="sourcePoint" />
            <mxPoint x="420" y="450" as="targetPoint" />
            <mxPoint x="1" as="offset" />
          </mxGeometry>
        </mxCell>
        <mxCell id="ZV-1-TacNn8IX8gU4SjX-98" value="" style="endArrow=classic;html=1;entryX=-0.06;entryY=0.716;entryDx=0;entryDy=0;entryPerimeter=0;" parent="1" edge="1">
          <mxGeometry width="50" height="50" relative="1" as="geometry">
            <mxPoint x="420" y="430" as="sourcePoint" />
            <mxPoint x="724.4000000000001" y="430.24" as="targetPoint" />
          </mxGeometry>
        </mxCell>
        <mxCell id="ZV-1-TacNn8IX8gU4SjX-99" value="读取最新数据" style="edgeLabel;html=1;align=center;verticalAlign=middle;resizable=0;points=[];" parent="ZV-1-TacNn8IX8gU4SjX-98" vertex="1" connectable="0">
          <mxGeometry x="0.1142" y="4" relative="1" as="geometry">
            <mxPoint x="50" y="-6" as="offset" />
          </mxGeometry>
        </mxCell>
        <mxCell id="kDBZC2RVZyhaXaxTecxW-2" value="检查是否已登录" style="text;html=1;strokeColor=none;fillColor=none;align=center;verticalAlign=middle;whiteSpace=wrap;rounded=0;" vertex="1" parent="1">
          <mxGeometry x="270" y="160" width="40" height="20" as="geometry" />
        </mxCell>
        <mxCell id="kDBZC2RVZyhaXaxTecxW-3" value="未登录，弹出登录界面" style="html=1;verticalAlign=bottom;endArrow=open;dashed=1;endSize=8;fontFamily=Helvetica;entryX=1;entryY=0.217;entryDx=0;entryDy=0;entryPerimeter=0;" edge="1" parent="1">
          <mxGeometry relative="1" as="geometry">
            <mxPoint x="230" y="210" as="sourcePoint" />
            <mxPoint x="60" y="210" as="targetPoint" />
            <Array as="points" />
            <mxPoint as="offset" />
          </mxGeometry>
        </mxCell>
        <mxCell id="kDBZC2RVZyhaXaxTecxW-4" value="" style="endArrow=classic;html=1;" edge="1" parent="1">
          <mxGeometry width="50" height="50" relative="1" as="geometry">
            <mxPoint x="60" y="324.5" as="sourcePoint" />
            <mxPoint x="410" y="324.5" as="targetPoint" />
          </mxGeometry>
        </mxCell>
        <mxCell id="kDBZC2RVZyhaXaxTecxW-5" value="修改头像" style="edgeLabel;html=1;align=center;verticalAlign=middle;resizable=0;points=[];" vertex="1" connectable="0" parent="kDBZC2RVZyhaXaxTecxW-4">
          <mxGeometry x="0.1142" y="4" relative="1" as="geometry">
            <mxPoint x="55" y="-6" as="offset" />
          </mxGeometry>
        </mxCell>
      </root>
    </mxGraphModel>
  </diagram>
</mxfile>
